<?xml version="1.0" encoding="utf-8"?>
<!-- Generator: Adobe Illustrator 22.1.0, SVG Export Plug-In . SVG Version: 6.00 Build 0)  -->
<svg version="1.1" id="Layer_1" xmlns="http://www.w3.org/2000/svg" xmlns:xlink="http://www.w3.org/1999/xlink" x="0px" y="0px"
	 viewBox="0 0 138.7 176" style="enable-background:new 0 0 138.7 176;" xml:space="preserve">
<style type="text/css">
	.st0{fill:#FFFFFF;}
</style>
<g>
	
		<image style="overflow:visible;opacity:0.75;enable-background:new    ;" width="143" height="177" xlink:href="A1D30E63.png"  transform="matrix(1 0 0 1 3.6667 5)">
	</image>
	<g>
		<g>
			<polygon class="st0" points="67.6,69.2 67.6,15.5 52.4,80.1 			"/>
			<polygon class="st0" points="51.7,80.1 67.6,13.1 40.9,71.2 			"/>
			<polygon class="st0" points="53.8,81.1 32.2,93 22.2,115.1 64.3,84.8 			"/>
			<polygon class="st0" points="21.7,117.1 12.6,137.8 67.6,99.9 64.3,86.5 			"/>
			<polygon class="st0" points="13.4,139.1 26.2,159.3 34.5,145.4 26.2,145.4 37.6,122 			"/>
			<polygon class="st0" points="69.4,15.4 69.4,69.1 84.6,80 			"/>
			<polygon class="st0" points="96,71.1 69.4,13 85.2,80 			"/>
			<polygon class="st0" points="72.7,84.7 114.8,115 104.8,92.9 83.2,81 			"/>
			<polygon class="st0" points="115.3,117 72.7,86.4 69.4,99.8 124.3,137.7 			"/>
			<polygon class="st0" points="110.8,145.3 102.5,145.3 110.8,159.2 123.6,139 99.4,121.9 			"/>
		</g>
	</g>
</g>
</svg>
