<?xml version="1.0" encoding="utf-8"?>
<!-- Generator: Adobe Illustrator 22.1.0, SVG Export Plug-In . SVG Version: 6.00 Build 0)  -->
<svg version="1.1" id="Layer_1" xmlns="http://www.w3.org/2000/svg" xmlns:xlink="http://www.w3.org/1999/xlink" x="0px" y="0px"
	 viewBox="0 0 400 255" style="enable-background:new 0 0 400 255;" xml:space="preserve">
<style type="text/css">
	.st0{fill:#FFFFFF;}
	.st1{fill:#F2F2F2;}
</style>
<g>
	<path class="st0" d="M26.8,251.7h-5.2l-1.3-5h-7.1l-1.3,5H6.8l7.3-30.2h5.4L26.8,251.7z M19.1,241.6l-2.3-9.3l-2.3,9.3H19.1z"/>
	<path class="st0" d="M52.1,234l-5.2,5l5.2,12.6h-5.5l-5.3-12.6H37v12.6h-5v-30.2H47l5,5V234z M47,232v-3.4l-2.1-2.1h-8v7.6h8
		L47,232z"/>
	<path class="st0" d="M67.2,239.1H57.1v-5h10.1V239.1z"/>
	<path class="st0" d="M92.3,246.6l-5.2,5h-9.9l-5-5v-20.1l5-5h10.1l5,5v2.5h-5v-0.5l-2.1-2.1h-5.9l-2.1,2.1v16l2.1,2.1h5.9l2.1-2.1
		v-0.5h5V246.6z"/>
	<path class="st0" d="M117.5,234l-5.2,5l5.2,12.6H112l-5.3-12.6h-4.3v12.6h-5v-30.2h15.1l5,5V234z M112.5,232v-3.4l-2.1-2.1h-8v7.6
		h8L112.5,232z"/>
	<path class="st0" d="M142.6,251.7h-5.2l-1.3-5H129l-1.3,5h-5.2l7.3-30.2h5.4L142.6,251.7z M134.9,241.6l-2.3-9.3l-2.3,9.3H134.9z"
		/>
	<path class="st0" d="M167.8,226.5h-15.1v7.6h7.6v5h-7.6v12.6h-5v-30.2h20.1V226.5z"/>
	<path class="st0" d="M193,226.5h-7.6v25.2h-5v-25.2h-7.6v-5H193V226.5z"/>
	<path class="st0" d="M233.2,251.7H228l-1.3-5h-7.1l-1.3,5h-5.2l7.3-30.2h5.4L233.2,251.7z M225.5,241.6l-2.3-9.3l-2.3,9.3H225.5z"
		/>
	<path class="st0" d="M258.5,246.6l-5.2,5h-9.9l-5-5v-20.1l5-5h10.1l5,5v2.5h-5v-0.5l-2.1-2.1h-5.9l-2.1,2.1v16l2.1,2.1h5.9l2.1-2.1
		v-0.5h5V246.6z"/>
	<path class="st0" d="M283.5,251.7h-5.2l-1.3-5h-7.1l-1.3,5h-5.2l7.3-30.2h5.4L283.5,251.7z M275.8,241.6l-2.3-9.3l-2.3,9.3H275.8z"
		/>
	<path class="st0" d="M308.8,246.6l-5,5h-15.1v-30.2h15.1l5,5V246.6z M303.8,244.6v-16l-2.1-2.1h-8v20.1h8L303.8,244.6z"/>
	<path class="st0" d="M334,251.7h-20.1v-30.2H334v5h-15.1v7.6h7.6v5h-7.6v7.6H334V251.7z"/>
	<path class="st0" d="M369.2,251.7h-5v-17.3l-7.3,17.3h-5.5l-7.3-17.3v17.3h-5v-30.2h5l10.1,23.7l10.1-23.7h5V251.7z"/>
	<path class="st0" d="M393.9,221.5l-7,15.1v15.1h-5v-15.1l-7-15.1h5.5l4,8.6l4-8.6H393.9z"/>
</g>
<polygon class="st1" points="181.6,82.1 142.2,141.9 169.5,141.9 195.1,102.5 "/>
<polygon class="st1" points="186.4,74.5 199.9,53.7 258.4,141.9 230.4,141.9 "/>
<path class="st0" d="M199.6,197.9l-0.7-0.4l-76.8-44.3V63.7L199.6,19l77.5,44.7v89.4L199.6,197.9z M125,151.6l74.7,43.1l74.7-43.1
	V65.3l-74.7-43.1L125,65.3V151.6z"/>
</svg>
