<?xml version="1.0" encoding="utf-8"?>
<!-- Generator: Adobe Illustrator 22.1.0, SVG Export Plug-In . SVG Version: 6.00 Build 0)  -->
<svg version="1.1" id="Layer_1" xmlns="http://www.w3.org/2000/svg" xmlns:xlink="http://www.w3.org/1999/xlink" x="0px" y="0px"
	 viewBox="0 0 400 267" style="enable-background:new 0 0 400 267;" xml:space="preserve">
<style type="text/css">
	.st0{fill:#FFFFFF;}
</style>
<g>
	
		<image style="overflow:visible;opacity:0.75;" width="143" height="177" xlink:href="A1D30E63.png"  transform="matrix(1 0 0 1 135 11)">
	</image>
	<g>
		<g>
			<polygon class="st0" points="198.9,75.2 198.9,21.5 183.7,86.1 			"/>
			<polygon class="st0" points="183,86.1 198.9,19.1 172.2,77.2 			"/>
			<polygon class="st0" points="185.1,87.1 163.5,99 153.5,121.1 195.6,90.8 			"/>
			<polygon class="st0" points="153,123.1 143.9,143.8 198.9,105.9 195.6,92.5 			"/>
			<polygon class="st0" points="144.7,145.1 157.5,165.3 165.8,151.4 157.5,151.4 168.9,128 			"/>
			<polygon class="st0" points="200.7,21.4 200.7,75.1 215.9,86 			"/>
			<polygon class="st0" points="227.3,77.1 200.7,19 216.5,86 			"/>
			<polygon class="st0" points="204,90.7 246.1,121 236.1,98.9 214.5,87 			"/>
			<polygon class="st0" points="246.6,123 204,92.4 200.7,105.8 255.6,143.7 			"/>
			<polygon class="st0" points="242.1,151.3 233.8,151.3 242.1,165.2 254.9,145 230.7,127.9 			"/>
		</g>
	</g>
</g>
<g>
	
		<image style="overflow:visible;opacity:0.75;" width="415" height="60" xlink:href="A1D30E61.png"  transform="matrix(1 0 0 1 -3 194)">
	</image>
	<g>
		<g>
			<path class="st0" d="M25.8,231.9h-5.1l-1.2-5h-7.1l-1.2,5H6l7.2-29.9h5.4L25.8,231.9z M18.2,222l-2.3-9.2l-2.3,9.2H18.2z"/>
			<path class="st0" d="M50.9,214.5l-5.2,5l5.2,12.5h-5.4l-5.3-12.5h-4.2v12.5h-5V202h15l5,5V214.5z M45.9,212.4V209l-2-2h-7.9v7.5
				h7.9L45.9,212.4z"/>
			<path class="st0" d="M65.8,219.5h-10v-5h10V219.5z"/>
			<path class="st0" d="M90.8,227l-5.2,5h-9.8l-5-5v-20l5-5h10l5,5v2.5h-5V209l-2-2h-5.9l-2,2v15.9l2,2h5.9l2-2v-0.4h5V227z"/>
			<path class="st0" d="M115.7,214.5l-5.2,5l5.2,12.5h-5.4l-5.3-12.5h-4.2v12.5h-5V202h15l5,5V214.5z M110.7,212.4V209l-2-2h-7.9
				v7.5h7.9L110.7,212.4z"/>
			<path class="st0" d="M140.6,231.9h-5.1l-1.2-5h-7.1l-1.2,5h-5.1l7.2-29.9h5.4L140.6,231.9z M132.9,222l-2.3-9.2l-2.3,9.2H132.9z"
				/>
			<path class="st0" d="M165.6,207h-15v7.5h7.5v5h-7.5v12.5h-5V202h20V207z"/>
			<path class="st0" d="M190.5,207H183v24.9h-5V207h-7.5v-5h20V207z"/>
			<path class="st0" d="M230.3,231.9h-5.1l-1.2-5h-7.1l-1.2,5h-5.1l7.2-29.9h5.4L230.3,231.9z M222.7,222l-2.3-9.2l-2.3,9.2H222.7z"
				/>
			<path class="st0" d="M255.4,227l-5.2,5h-9.8l-5-5v-20l5-5h10l5,5v2.5h-5V209l-2-2h-5.9l-2,2v15.9l2,2h5.9l2-2v-0.4h5V227z"/>
			<path class="st0" d="M280.2,231.9h-5.1l-1.2-5h-7.1l-1.2,5h-5.1l7.2-29.9h5.4L280.2,231.9z M272.6,222l-2.3-9.2L268,222H272.6z"
				/>
			<path class="st0" d="M305.2,227l-5,5h-15V202h15l5,5V227z M300.3,224.9V209l-2-2h-7.9v20h7.9L300.3,224.9z"/>
			<path class="st0" d="M330.2,231.9h-20V202h20v5h-15v7.5h7.5v5h-7.5v7.5h15V231.9z"/>
			<path class="st0" d="M365.1,231.9h-5v-17.2l-7.3,17.2h-5.4l-7.2-17.2v17.2h-5V202h5l10,23.5l10-23.5h5V231.9z"/>
			<path class="st0" d="M389.5,202l-7,15v15h-5v-15l-7-15h5.5l4,8.5l4-8.5H389.5z"/>
		</g>
	</g>
</g>
</svg>
